# File created by Blade
# Date/Time:  Wed Jan 21 16:09:38 2015
# Frame Rate: 120.000 fps
#------------------------------------------------------
:FULLY-SPECIFIED
:DEGREES
279
root 14.656014 33.556055 -21.838915 -166.201115 78.960538 -182.786766
Spine -8.024733 -6.667266 0.916608
Head 12.983555 -5.624026 0.438558
LeftShoulder -16.982305 -37.165289 25.280053
LeftArm -5.228039 3.449747 -7.440844
LeftForeArm 7.652911 -0.000000 -1.642563
LeftHand -10.525404 -0.000000 5.116868
LeftHandThumb1 -26.253704 0.000000 33.147579
RightShoulder -14.621559 -1.750483 -14.065131
RightArm -5.804255 41.582594 11.681941
RightForeArm -35.635842 -0.000000 7.098471
RightHand -11.455903 -0.000000 -3.173396
RightHandThumb1 -24.326973 -0.000000 -32.862282
LeftUpLeg 6.183320 2.588811 -6.024233
LeftLeg -12.254175 -0.000000 0.000000
LeftFoot -11.713946 29.325114 14.770460
LeftToeBase -136.515989 -0.000000 0.000000
RightUpLeg -35.124249 -1.451151 3.280296
RightLeg -4.796284 -0.000000 0.000000
RightFoot 6.642375 -29.930672 1.099185
RightToeBase 27.412861 -0.000000 -0.000000
280
root 14.643329 33.553264 -21.834065 -166.409122 78.914052 -183.367460
Spine -7.885007 -6.720466 0.920499
Head 12.716749 -5.548665 0.397744
LeftShoulder -17.010036 -37.357295 25.357500
LeftArm -5.608096 3.424698 -7.442501
LeftForeArm 7.569169 -0.000000 -1.568252
LeftHand -10.550617 0.000000 5.153861
LeftHandThumb1 -26.253704 0.000000 33.147579
RightShoulder -14.592709 -1.711668 -14.173163
RightArm -6.000385 41.590858 11.701599
RightForeArm -35.547528 0.000000 7.173865
RightHand -11.549026 0.000000 -3.433496
RightHandThumb1 -24.326973 -0.000000 -32.862282
LeftUpLeg 5.805768 2.392744 -6.135341
LeftLeg -12.252421 -0.000000 0.000000
LeftFoot -11.684285 29.370192 14.743923
LeftToeBase -136.546096 -0.000000 0.000000
RightUpLeg -35.480687 -1.430296 3.153065
RightLeg -4.855573 -0.000000 0.000000
RightFoot 6.736658 -29.992698 0.938070
RightToeBase 27.208302 -0.000000 -0.000000
281
root 14.629925 33.550202 -21.828369 -166.560145 78.901785 -183.894176
Spine -7.738970 -6.703513 0.912413
Head 12.472215 -5.503272 0.368641
LeftShoulder -17.024856 -37.487084 25.436176
LeftArm -5.945258 3.251158 -7.488904
LeftForeArm 7.575537 0.000000 -1.535442
LeftHand -10.628756 -0.000000 5.084382
LeftHandThumb1 -26.253704 0.000000 33.147579
RightShoulder -14.623635 -1.700629 -14.236441
RightArm -6.131369 41.633360 11.738541
RightForeArm -35.484712 -0.000000 7.253090
RightHand -11.640518 -0.000000 -3.657507
RightHandThumb1 -24.326973 -0.000000 -32.862282
LeftUpLeg 5.430535 2.230512 -6.241957
LeftLeg -12.256862 -0.000000 0.000000
LeftFoot -11.651578 29.417085 14.724523
LeftToeBase -136.547367 -0.000000 0.000000
RightUpLeg -35.852699 -1.325500 2.999578
RightLeg -4.877322 -0.000000 0.000000
RightFoot 6.770023 -30.109387 0.797943
RightToeBase 27.405990 -0.000000 -0.000000
282
root 14.616335 33.546696 -21.823761 -166.680948 78.899790 -184.407689
Spine -7.628034 -6.670298 0.916936
Head 12.274195 -5.476551 0.325307
LeftShoulder -17.011991 -37.636052 25.485764
LeftArm -6.311256 3.160279 -7.530204
LeftForeArm 7.513937 -0.000000 -1.419982
LeftHand -10.729769 -0.000000 5.159257
LeftHandThumb1 -26.253704 0.000000 33.147579
RightShoulder -14.594199 -1.630251 -14.342476
RightArm -6.416848 41.678642 11.698847
RightForeArm -35.476671 -0.000000 7.399416
RightHand -11.742121 -0.000000 -3.883993
RightHandThumb1 -24.326973 -0.000000 -32.862282
LeftUpLeg 5.041054 2.070474 -6.347549
LeftLeg -12.261988 -0.000000 0.000000
LeftFoot -11.608398 29.473702 14.716140
LeftToeBase -136.537513 -0.000000 0.000000
RightUpLeg -36.237618 -1.291279 2.888267
RightLeg -4.935204 -0.000000 0.000000
RightFoot 6.865392 -30.150436 0.705738
RightToeBase 27.302825 -0.000000 -0.000000
283
root 14.602837 33.545087 -21.817534 -166.648473 78.917012 -184.791303
Spine -7.532138 -6.598379 0.951942
Head 12.046019 -5.457311 0.278382
LeftShoulder -16.950077 -38.011477 25.553504
LeftArm -6.818530 3.345462 -7.537400
LeftForeArm 7.509132 -0.000000 -1.262427
LeftHand -10.750409 -0.000000 5.140637
LeftHandThumb1 -26.253704 0.000000 33.147579
RightShoulder -14.572819 -1.459773 -14.477468
RightArm -6.736731 41.578308 11.653455
RightForeArm -35.428075 -0.000000 7.563226
RightHand -11.926545 -0.000000 -4.115857
RightHandThumb1 -24.326973 -0.000000 -32.862282
LeftUpLeg 4.620915 1.993660 -6.427800
LeftLeg -12.257241 -0.000000 0.000000
LeftFoot -11.623327 29.467851 14.703314
LeftToeBase -136.548909 -0.000000 0.000000
RightUpLeg -36.644373 -1.230986 2.800764
RightLeg -4.971191 -0.000000 0.000000
RightFoot 7.001667 -30.149692 0.500986
RightToeBase 27.130343 -0.000000 -0.000000
284
root 14.591389 33.541126 -21.812797 -166.641489 78.949510 -185.199340
Spine -7.451697 -6.536531 0.975395
Head 11.903776 -5.438711 0.234843
LeftShoulder -16.895882 -38.147294 25.596500
LeftArm -7.239490 3.222115 -7.576890
LeftForeArm 7.511557 -0.000000 -1.166259
LeftHand -10.760786 -0.000000 5.165295
LeftHandThumb1 -26.253704 0.000000 33.147579
RightShoulder -14.488695 -1.289276 -14.603947
RightArm -7.141390 41.544884 11.547839
RightForeArm -35.422229 -0.000000 7.765089
RightHand -12.060259 -0.000000 -4.170853
RightHandThumb1 -24.326973 -0.000000 -32.862282
LeftUpLeg 4.217648 1.954275 -6.519996
LeftLeg -12.276541 -0.000000 0.000000
LeftFoot -11.635375 29.462814 14.680102
LeftToeBase -136.579625 -0.000000 0.000000
RightUpLeg -37.043440 -1.218153 2.744692
RightLeg -5.056006 -0.000000 0.000000
RightFoot 6.981547 -30.151499 0.636704
RightToeBase 27.192307 -0.000000 -0.000000
285
root 14.579868 33.538684 -21.807326 -166.570094 78.987790 -185.552957
Spine -7.348829 -6.470380 1.017356
Head 11.668435 -5.403762 0.177498
LeftShoulder -16.952032 -38.329927 25.635545
LeftArm -7.538843 3.282547 -7.609913
LeftForeArm 7.367336 -0.000000 -1.108552
LeftHand -10.836026 -0.000000 5.024347
LeftHandThumb1 -26.253704 0.000000 33.147579
RightShoulder -14.478926 -1.216394 -14.683374
RightArm -7.369097 41.597524 11.539453
RightForeArm -35.378853 -0.000000 7.926129
RightHand -12.167549 -0.000000 -4.424817
RightHandThumb1 -24.326973 -0.000000 -32.862282
LeftUpLeg 3.798785 1.934366 -6.599489
LeftLeg -12.282108 -0.000000 0.000000
LeftFoot -11.648379 29.403072 14.681097
LeftToeBase -136.617801 -0.000000 0.000000
RightUpLeg -37.458873 -1.201542 2.706336
RightLeg -5.106187 -0.000000 0.000000
RightFoot 6.970725 -30.113482 0.670108
RightToeBase 27.311018 -0.000000 -0.000000
286
root 14.567558 33.536228 -21.802310 -166.395784 79.046643 -185.797119
Spine -7.232799 -6.392721 1.088530
Head 11.447792 -5.467920 0.113375
LeftShoulder -16.967216 -38.455120 25.617579
LeftArm -7.854485 3.317151 -7.627303
LeftForeArm 7.242333 -0.000000 -1.046020
LeftHand -10.734783 -0.000000 5.055210
LeftHandThumb1 -26.253704 0.000000 33.147579
RightShoulder -14.425072 -1.049865 -14.806457
RightArm -7.683569 41.633335 11.498894
RightForeArm -35.445646 -0.000000 8.102462
RightHand -12.304036 -0.000000 -4.645637
RightHandThumb1 -24.326973 -0.000000 -32.862282
LeftUpLeg 3.380400 1.922122 -6.663387
LeftLeg -12.285609 -0.000000 0.000000
LeftFoot -11.671833 29.376075 14.688907
LeftToeBase -136.599679 -0.000000 0.000000
RightUpLeg -37.879403 -1.219989 2.719491
RightLeg -5.149786 -0.000000 0.000000
RightFoot 6.981991 -29.986360 0.739303
RightToeBase 27.435895 -0.000000 -0.000000
287
root 14.554419 33.534302 -21.797256 -166.276294 79.112522 -186.124856
Spine -7.133413 -6.325520 1.138718
Head 11.181608 -5.406390 0.054537
LeftShoulder -17.077422 -38.597030 25.755406
LeftArm -8.189385 3.192212 -7.757208
LeftForeArm 7.396017 -0.000000 -0.970721
LeftHand -10.721865 -0.000000 5.201745
LeftHandThumb1 -26.253704 0.000000 33.147579
RightShoulder -14.351708 -0.883278 -14.902895
RightArm -8.021754 41.528088 11.443414
RightForeArm -35.294648 -0.000000 8.321583
RightHand -12.447869 0.000000 -4.767630
RightHandThumb1 -24.326973 -0.000000 -32.862282
LeftUpLeg 2.926848 1.873314 -6.742730
LeftLeg -12.281646 -0.000000 0.000000
LeftFoot -11.705365 29.367063 14.656481
LeftToeBase -136.637905 -0.000000 0.000000
RightUpLeg -38.337868 -1.223979 2.714189
RightLeg -5.162219 -0.000000 0.000000
RightFoot 6.965644 -29.895405 0.847381
RightToeBase 27.328199 -0.000000 -0.000000
288
root 14.539183 33.532346 -21.791206 -166.139830 79.177139 -186.432329
Spine -7.033276 -6.212056 1.176111
Head 10.967587 -5.433783 0.030907
LeftShoulder -17.047503 -38.696753 25.787892
LeftArm -8.542490 3.209024 -7.882004
LeftForeArm 7.261247 -0.000000 -0.876890
LeftHand -10.966581 -0.000000 5.182942
LeftHandThumb1 -26.253704 0.000000 33.147579
RightShoulder -14.275146 -0.776033 -15.008648
RightArm -8.391086 41.606152 11.382872
RightForeArm -35.301761 -0.000000 8.461397
RightHand -12.531717 -0.000000 -4.890556
RightHandThumb1 -24.326973 -0.000000 -32.862282
LeftUpLeg 2.467181 1.766664 -6.814281
LeftLeg -12.262942 -0.000000 0.000000
LeftFoot -11.690713 29.412436 14.695002
LeftToeBase -136.591284 -0.000000 0.000000
RightUpLeg -38.798382 -1.246880 2.721969
RightLeg -5.184752 -0.000000 0.000000
RightFoot 7.125682 -29.745911 0.627655
RightToeBase 27.391591 -0.000000 -0.000000
289
root 14.525400 33.531455 -21.786015 -166.073891 79.207902 -186.807784
Spine -6.903377 -6.195186 1.224361
Head 10.714647 -5.371572 -0.018043
LeftShoulder -17.165466 -38.681901 25.842969
LeftArm -8.753708 3.007450 -7.993893
LeftForeArm 7.350296 -0.000000 -0.951194
LeftHand -10.835210 -0.000000 5.129804
LeftHandThumb1 -26.253704 0.000000 33.147579
RightShoulder -14.193982 -0.578982 -15.117222
RightArm -8.682854 41.580371 11.361796
RightForeArm -35.249285 -0.000000 8.554602
RightHand -12.606272 0.000000 -5.056418
RightHandThumb1 -24.326973 -0.000000 -32.862282
LeftUpLeg 2.001835 1.587165 -6.889177
LeftLeg -12.227696 -0.000000 0.000000
LeftFoot -11.657049 29.508625 14.692980
LeftToeBase -136.557779 -0.000000 0.000000
RightUpLeg -39.251454 -1.321464 2.734784
RightLeg -5.190828 -0.000000 0.000000
RightFoot 7.037726 -29.549577 0.804495
RightToeBase 27.500053 -0.000000 -0.000000
290
root 14.511242 33.529546 -21.782899 -166.078327 79.234364 -187.254482
Spine -6.761447 -6.135738 1.252821
Head 10.410560 -5.420094 -0.023703
LeftShoulder -17.158855 -38.864745 25.864746
LeftArm -9.095003 3.019509 -8.051240
LeftForeArm 7.449909 -0.000000 -0.945938
LeftHand -10.619777 -0.000000 5.188679
LeftHandThumb1 -26.253704 0.000000 33.147579
RightShoulder -14.144964 -0.376573 -15.226607
RightArm -8.991030 41.375159 11.348912
RightForeArm -35.075547 -0.000000 8.661760
RightHand -12.678743 -0.000000 -5.252802
RightHandThumb1 -24.326973 -0.000000 -32.862282
LeftUpLeg 1.541140 1.414942 -6.978641
LeftLeg -12.203704 -0.000000 0.000000
LeftFoot -11.620699 29.592712 14.697548
LeftToeBase -136.503243 -0.000000 0.000000
RightUpLeg -39.689194 -1.394401 2.738200
RightLeg -5.241686 -0.000000 0.000000
RightFoot 6.926592 -29.466216 1.083287
RightToeBase 27.557794 -0.000000 -0.000000
291
root 14.495321 33.528546 -21.777817 -166.055578 79.258902 -187.678326
Spine -6.608819 -6.091747 1.279904
Head 10.109251 -5.432957 -0.018189
LeftShoulder -17.139425 -39.037963 25.926667
LeftArm -9.514157 3.082131 -8.157113
LeftForeArm 7.488634 0.000000 -0.863660
LeftHand -10.560129 -0.000000 5.199553
LeftHandThumb1 -26.253704 0.000000 33.147579
RightShoulder -14.071147 -0.221324 -15.315234
RightArm -9.295436 41.348057 11.337668
RightForeArm -34.987690 -0.000000 8.756199
RightHand -12.867967 -0.000000 -5.383470
RightHandThumb1 -24.326973 -0.000000 -32.862282
LeftUpLeg 1.065033 1.228916 -7.055493
LeftLeg -12.163359 -0.000000 0.000000
LeftFoot -11.586897 29.683697 14.710515
LeftToeBase -136.474728 -0.000000 0.000000
RightUpLeg -40.135877 -1.481508 2.754460
RightLeg -5.275728 -0.000000 0.000000
RightFoot 7.014333 -29.243753 0.987456
RightToeBase 27.518062 -0.000000 -0.000000
